<mxfile host="app.diagrams.net" agent="Mozilla/5.0 (Windows NT 10.0; Win64; x64) AppleWebKit/537.36 (KHTML, like Gecko) Chrome/138.0.0.0 Safari/537.36 Edg/138.0.0.0" version="28.0.4">
  <diagram name="Sales Process with ERP" id="0">
    <mxGraphModel grid="1" page="1" gridSize="10" guides="1" tooltips="1" connect="1" arrows="1" fold="1" pageScale="1" pageWidth="827" pageHeight="1169" math="0" shadow="0">
      <root>
        <mxCell id="0" />
        <mxCell id="1" parent="0" />
        <mxCell id="pool_customer" value="Khách hàng" style="swimlane;horizontal=0" vertex="1" parent="1">
          <mxGeometry x="-120" y="-360" width="2000" height="190" as="geometry" />
        </mxCell>
        <mxCell id="task_search" value="Tìm kiếm &amp; Lựa chọn sản phẩm" style="rounded=1" vertex="1" parent="pool_customer">
          <mxGeometry x="180" y="96" width="180" height="40" as="geometry" />
        </mxCell>
        <mxCell id="task_order" value="Đặt hàng (Online/Offline)" style="rounded=1" vertex="1" parent="pool_customer">
          <mxGeometry x="440" y="96" width="180" height="40" as="geometry" />
        </mxCell>
        <mxCell id="task_receive" value="Nhận hàng" style="rounded=1" vertex="1" parent="pool_customer">
          <mxGeometry x="1390" y="10" width="180" height="40" as="geometry" />
        </mxCell>
        <mxCell id="start_evt" value="Tiếp nhận Yêu cầu mua hàng" style="ellipse;verticalAlign=bottom;labelPosition=center;verticalLabelPosition=top;align=center;" vertex="1" parent="pool_customer">
          <mxGeometry x="90" y="96" width="40" height="40" as="geometry" />
        </mxCell>
        <mxCell id="flow1" style="edgeStyle=orthogonalEdgeStyle" edge="1" parent="pool_customer" source="start_evt" target="task_search">
          <mxGeometry relative="1" as="geometry" />
        </mxCell>
        <mxCell id="stnJ8A8utj70ncKNeC4R-22" value="Khách hàng đồng ý giải pháp" style="rhombus;labelPosition=center;verticalLabelPosition=middle;align=center;verticalAlign=middle;" vertex="1" parent="pool_customer">
          <mxGeometry x="735" y="81" width="70" height="70" as="geometry" />
        </mxCell>
        <mxCell id="stnJ8A8utj70ncKNeC4R-28" value="Hủy đơn hàng" style="points=[[0.145,0.145,0],[0.5,0,0],[0.855,0.145,0],[1,0.5,0],[0.855,0.855,0],[0.5,1,0],[0.145,0.855,0],[0,0.5,0]];shape=mxgraph.bpmn.event;html=1;verticalLabelPosition=bottom;labelBackgroundColor=#ffffff;verticalAlign=top;align=center;perimeter=ellipsePerimeter;outlineConnect=0;aspect=fixed;outline=end;symbol=terminate2;" vertex="1" parent="pool_customer">
          <mxGeometry x="1000" y="10" width="50" height="50" as="geometry" />
        </mxCell>
        <mxCell id="stnJ8A8utj70ncKNeC4R-29" value="No" style="edgeStyle=orthogonalEdgeStyle;rounded=0;orthogonalLoop=1;jettySize=auto;html=1;entryX=0;entryY=0.5;entryDx=0;entryDy=0;entryPerimeter=0;" edge="1" parent="pool_customer" source="stnJ8A8utj70ncKNeC4R-22" target="stnJ8A8utj70ncKNeC4R-28">
          <mxGeometry relative="1" as="geometry">
            <Array as="points">
              <mxPoint x="770" y="35" />
            </Array>
          </mxGeometry>
        </mxCell>
        <mxCell id="task_payment" value="Thanh toán" style="rounded=1" vertex="1" parent="pool_customer">
          <mxGeometry x="1670" y="10" width="180" height="40" as="geometry" />
        </mxCell>
        <mxCell id="stnJ8A8utj70ncKNeC4R-27" value="Nhận hàng và thanh toán thành công" style="points=[[0.145,0.145,0],[0.5,0,0],[0.855,0.145,0],[1,0.5,0],[0.855,0.855,0],[0.5,1,0],[0.145,0.855,0],[0,0.5,0]];shape=mxgraph.bpmn.event;html=1;verticalLabelPosition=bottom;labelBackgroundColor=#ffffff;verticalAlign=top;align=center;perimeter=ellipsePerimeter;outlineConnect=0;aspect=fixed;outline=end;symbol=terminate2;" vertex="1" parent="pool_customer">
          <mxGeometry x="1735" y="96" width="50" height="50" as="geometry" />
        </mxCell>
        <mxCell id="flow16" style="edgeStyle=orthogonalEdgeStyle" edge="1" parent="pool_customer" source="task_receive" target="task_payment">
          <mxGeometry relative="1" as="geometry" />
        </mxCell>
        <mxCell id="flow22" style="edgeStyle=orthogonalEdgeStyle;entryX=0.5;entryY=0;entryDx=0;entryDy=0;entryPerimeter=0;" edge="1" parent="pool_customer" source="task_payment" target="stnJ8A8utj70ncKNeC4R-27">
          <mxGeometry relative="1" as="geometry">
            <mxPoint x="1750" y="226" as="targetPoint" />
          </mxGeometry>
        </mxCell>
        <mxCell id="flow2" style="edgeStyle=orthogonalEdgeStyle" edge="1" parent="1" source="task_search" target="task_order">
          <mxGeometry relative="1" as="geometry" />
        </mxCell>
        <mxCell id="flow3" style="edgeStyle=orthogonalEdgeStyle;dashed=1;" edge="1" parent="1" source="task_order" target="task_receive_order">
          <mxGeometry relative="1" as="geometry" />
        </mxCell>
        <mxCell id="pool_anphat" value="An Phát" style="swimlane;horizontal=0;startSize=20;labelPosition=center;verticalLabelPosition=middle;align=center;verticalAlign=middle;" vertex="1" parent="1">
          <mxGeometry x="-120" y="-170" width="2000" height="1090" as="geometry" />
        </mxCell>
        <mxCell id="lane_sales" value="Kênh Bán hàng" style="swimlane;horizontal=0" vertex="1" parent="pool_anphat">
          <mxGeometry x="20" width="1980" height="200" as="geometry" />
        </mxCell>
        <mxCell id="task_receive_order" value="Tiếp nhận Đơn hàng" style="rounded=1" vertex="1" parent="lane_sales">
          <mxGeometry x="420" y="30" width="180" height="40" as="geometry" />
        </mxCell>
        <mxCell id="stnJ8A8utj70ncKNeC4R-19" value="Liên hệ khách hàng để thông báo &#xa;tình trạng, đề xuất giải pháp" style="rounded=1" vertex="1" parent="lane_sales">
          <mxGeometry x="655" y="40" width="190" height="40" as="geometry" />
        </mxCell>
        <mxCell id="stnJ8A8utj70ncKNeC4R-30" value="Tạo đơn mua hàng" style="rounded=1" vertex="1" parent="lane_sales">
          <mxGeometry x="900" y="40" width="180" height="40" as="geometry" />
        </mxCell>
        <mxCell id="task_create_so" value="Tạo Sales Order" style="rounded=1" vertex="1" parent="lane_sales">
          <mxGeometry x="420" y="120" width="180" height="40" as="geometry" />
        </mxCell>
        <mxCell id="flow4" style="edgeStyle=orthogonalEdgeStyle" edge="1" parent="lane_sales" source="task_receive_order" target="task_create_so">
          <mxGeometry relative="1" as="geometry" />
        </mxCell>
        <mxCell id="lane_sm" value="Sales Management" style="swimlane;horizontal=0" vertex="1" parent="pool_anphat">
          <mxGeometry x="20" y="200" width="1980" height="170" as="geometry" />
        </mxCell>
        <mxCell id="task_reserve_stock" value="Giữ chỗ Hàng" style="rounded=1" vertex="1" parent="lane_sm">
          <mxGeometry x="870" y="45" width="180" height="40" as="geometry" />
        </mxCell>
        <mxCell id="task_create_invoice" value="Tạo Hóa đơn Bán hàng" style="rounded=1" vertex="1" parent="lane_sm">
          <mxGeometry x="1100" y="45" width="180" height="40" as="geometry" />
        </mxCell>
        <mxCell id="flow10" style="edgeStyle=orthogonalEdgeStyle" edge="1" parent="lane_sm" source="task_reserve_stock" target="task_create_invoice">
          <mxGeometry relative="1" as="geometry" />
        </mxCell>
        <mxCell id="stnJ8A8utj70ncKNeC4R-18" value="Cảnh báo thiếu hàng  " style="rounded=1" vertex="1" parent="lane_sm">
          <mxGeometry x="660" y="45" width="180" height="40" as="geometry" />
        </mxCell>
        <mxCell id="stnJ8A8utj70ncKNeC4R-24" value="Hoàn tất đơn hàng" style="points=[[0.145,0.145,0],[0.5,0,0],[0.855,0.145,0],[1,0.5,0],[0.855,0.855,0],[0.5,1,0],[0.145,0.855,0],[0,0.5,0]];shape=mxgraph.bpmn.event;html=1;verticalLabelPosition=top;labelBackgroundColor=#ffffff;verticalAlign=bottom;align=center;perimeter=ellipsePerimeter;outlineConnect=0;aspect=fixed;outline=end;symbol=terminate2;labelPosition=center;" vertex="1" parent="lane_sm">
          <mxGeometry x="1704" y="35" width="50" height="50" as="geometry" />
        </mxCell>
        <mxCell id="task_update_order" value="Cập nhật Trạng thái Đơn hàng" style="rounded=1" vertex="1" parent="lane_sm">
          <mxGeometry x="1639" y="110" width="180" height="40" as="geometry" />
        </mxCell>
        <mxCell id="flow21" style="edgeStyle=orthogonalEdgeStyle;entryX=0.5;entryY=1;entryDx=0;entryDy=0;entryPerimeter=0;" edge="1" parent="lane_sm" source="task_update_order" target="stnJ8A8utj70ncKNeC4R-24">
          <mxGeometry relative="1" as="geometry">
            <mxPoint x="1730" y="160" as="targetPoint" />
          </mxGeometry>
        </mxCell>
        <mxCell id="lane_im" value="Inventory Management" style="swimlane;horizontal=0;labelPosition=center;verticalLabelPosition=middle;align=center;verticalAlign=middle;startSize=23;" vertex="1" parent="pool_anphat">
          <mxGeometry x="20" y="370" width="1980" height="200" as="geometry" />
        </mxCell>
        <mxCell id="task_create_dn" value="Tạo Phiếu xuất kho" style="rounded=1" vertex="1" parent="lane_im">
          <mxGeometry x="1100" y="70" width="180" height="40" as="geometry" />
        </mxCell>
        <mxCell id="task_notify_stock" value="Thông báo Tình trạng Tồn kho" style="rounded=1" vertex="1" parent="lane_im">
          <mxGeometry x="660" y="110" width="180" height="40" as="geometry" />
        </mxCell>
        <mxCell id="gw_stock" value="Tồn kho đủ?" style="rhombus" vertex="1" parent="lane_im">
          <mxGeometry x="720" y="20" width="60" height="60" as="geometry" />
        </mxCell>
        <mxCell id="flow8" style="edgeStyle=orthogonalEdgeStyle" edge="1" parent="lane_im" source="task_notify_stock" target="gw_stock">
          <mxGeometry relative="1" as="geometry" />
        </mxCell>
        <mxCell id="task_check_stock" value="Kiểm tra Tồn kho" style="rounded=1" vertex="1" parent="lane_im">
          <mxGeometry x="420" y="80" width="180" height="40" as="geometry" />
        </mxCell>
        <mxCell id="lane_fa" value="Finance &amp; Accounting" style="swimlane;horizontal=0" vertex="1" parent="pool_anphat">
          <mxGeometry x="20" y="570" width="1980" height="250" as="geometry" />
        </mxCell>
        <mxCell id="task_record_ar" value="Ghi nhận Công nợ phải thu" style="rounded=1" vertex="1" parent="lane_fa">
          <mxGeometry x="1251" y="50" width="180" height="40" as="geometry" />
        </mxCell>
        <mxCell id="task_reconcile_ar" value="Đối trừ Công nợ" style="rounded=1" vertex="1" parent="lane_fa">
          <mxGeometry x="1640" y="40" width="180" height="40" as="geometry" />
        </mxCell>
        <mxCell id="lane_warehouse" value="Kho Vận" style="swimlane;horizontal=0" vertex="1" parent="pool_anphat">
          <mxGeometry x="20" y="820" width="1980" height="150" as="geometry" />
        </mxCell>
        <mxCell id="task_verify_stock" value="Xác minh tồn kho" style="rounded=1" vertex="1" parent="lane_warehouse">
          <mxGeometry x="420" y="55" width="180" height="40" as="geometry" />
        </mxCell>
        <mxCell id="task_update_stock" value="Cập nhật tồn kho" style="rounded=1" vertex="1" parent="lane_warehouse">
          <mxGeometry x="850" y="55" width="180" height="40" as="geometry" />
        </mxCell>
        <mxCell id="VKdsv1J_JRzGHAz9VC5Z-18" style="edgeStyle=orthogonalEdgeStyle;rounded=0;orthogonalLoop=1;jettySize=auto;html=1;entryX=1;entryY=0.5;entryDx=0;entryDy=0;" edge="1" parent="lane_warehouse" source="task_prepare_goods" target="task_update_stock">
          <mxGeometry relative="1" as="geometry" />
        </mxCell>
        <mxCell id="task_prepare_goods" value="Chuẩn bị &amp; Xuất hàng" style="rounded=1" vertex="1" parent="lane_warehouse">
          <mxGeometry x="1100" y="55" width="180" height="40" as="geometry" />
        </mxCell>
        <mxCell id="task_handover_goods" value="Bàn giao hàng" style="rounded=1" vertex="1" parent="lane_warehouse">
          <mxGeometry x="1370" y="55" width="180" height="40" as="geometry" />
        </mxCell>
        <mxCell id="flow14" style="edgeStyle=orthogonalEdgeStyle;entryX=0;entryY=0.5;entryDx=0;entryDy=0;exitX=1;exitY=0.5;exitDx=0;exitDy=0;" edge="1" parent="lane_warehouse" source="task_prepare_goods" target="task_handover_goods">
          <mxGeometry relative="1" as="geometry">
            <mxPoint x="1300" y="99.29" as="sourcePoint" />
            <mxPoint x="1370" y="99.29" as="targetPoint" />
            <Array as="points">
              <mxPoint x="1330" y="75" />
              <mxPoint x="1330" y="75" />
            </Array>
          </mxGeometry>
        </mxCell>
        <mxCell id="lane_accounting" value="Kế toán" style="swimlane;horizontal=0" vertex="1" parent="pool_anphat">
          <mxGeometry x="20" y="970" width="1980" height="120" as="geometry" />
        </mxCell>
        <mxCell id="task_record_payment" value="Ghi nhận Thu tiền" style="rounded=1" vertex="1" parent="lane_accounting">
          <mxGeometry x="1640" y="-270" width="180" height="40" as="geometry" />
        </mxCell>
        <mxCell id="task_confirm_payment" value="Xác nhận Thu tiền" style="rounded=1" vertex="1" parent="lane_accounting">
          <mxGeometry x="1640" y="50" width="180" height="40" as="geometry" />
        </mxCell>
        <mxCell id="flow18" style="edgeStyle=orthogonalEdgeStyle;dashed=1;" edge="1" parent="lane_accounting" source="task_confirm_payment" target="task_record_payment">
          <mxGeometry relative="1" as="geometry" />
        </mxCell>
        <mxCell id="flow5" style="edgeStyle=orthogonalEdgeStyle" edge="1" parent="pool_anphat" source="task_create_so" target="task_check_stock">
          <mxGeometry relative="1" as="geometry" />
        </mxCell>
        <mxCell id="flow11" style="edgeStyle=orthogonalEdgeStyle" edge="1" parent="pool_anphat" source="task_create_invoice" target="task_create_dn">
          <mxGeometry relative="1" as="geometry" />
        </mxCell>
        <mxCell id="flow13" style="edgeStyle=orthogonalEdgeStyle;exitX=0.5;exitY=1;exitDx=0;exitDy=0;dashed=1;" edge="1" parent="pool_anphat" source="task_create_dn" target="task_prepare_goods">
          <mxGeometry relative="1" as="geometry">
            <Array as="points" />
          </mxGeometry>
        </mxCell>
        <mxCell id="flow9" value="Yes" style="edgeStyle=orthogonalEdgeStyle" edge="1" parent="pool_anphat" source="gw_stock" target="task_reserve_stock">
          <mxGeometry relative="1" as="geometry">
            <Array as="points">
              <mxPoint x="977" y="420" />
            </Array>
          </mxGeometry>
        </mxCell>
        <mxCell id="flow7" style="edgeStyle=orthogonalEdgeStyle" edge="1" parent="pool_anphat" source="task_verify_stock" target="task_notify_stock">
          <mxGeometry relative="1" as="geometry" />
        </mxCell>
        <mxCell id="flow6" style="edgeStyle=orthogonalEdgeStyle;exitX=0.5;exitY=1;exitDx=0;exitDy=0;dashed=1;" edge="1" parent="pool_anphat" source="task_check_stock" target="task_verify_stock">
          <mxGeometry relative="1" as="geometry">
            <Array as="points" />
          </mxGeometry>
        </mxCell>
        <mxCell id="stnJ8A8utj70ncKNeC4R-20" value="No" style="edgeStyle=orthogonalEdgeStyle;rounded=0;orthogonalLoop=1;jettySize=auto;html=1;entryX=0.5;entryY=1;entryDx=0;entryDy=0;" edge="1" parent="pool_anphat" source="gw_stock" target="stnJ8A8utj70ncKNeC4R-18">
          <mxGeometry relative="1" as="geometry" />
        </mxCell>
        <mxCell id="stnJ8A8utj70ncKNeC4R-21" style="edgeStyle=orthogonalEdgeStyle;rounded=0;orthogonalLoop=1;jettySize=auto;html=1;entryX=0.5;entryY=1;entryDx=0;entryDy=0;" edge="1" parent="pool_anphat" source="stnJ8A8utj70ncKNeC4R-18" target="stnJ8A8utj70ncKNeC4R-19">
          <mxGeometry relative="1" as="geometry" />
        </mxCell>
        <mxCell id="stnJ8A8utj70ncKNeC4R-32" style="edgeStyle=orthogonalEdgeStyle;rounded=0;orthogonalLoop=1;jettySize=auto;html=1;entryX=0.5;entryY=0;entryDx=0;entryDy=0;exitX=1;exitY=0.5;exitDx=0;exitDy=0;dashed=1;" edge="1" parent="pool_anphat" source="task_create_invoice" target="task_record_ar">
          <mxGeometry relative="1" as="geometry">
            <Array as="points">
              <mxPoint x="1300" y="260" />
              <mxPoint x="1361" y="260" />
            </Array>
          </mxGeometry>
        </mxCell>
        <mxCell id="flow19" style="edgeStyle=orthogonalEdgeStyle" edge="1" parent="pool_anphat" source="task_record_payment" target="task_reconcile_ar">
          <mxGeometry relative="1" as="geometry" />
        </mxCell>
        <mxCell id="flow20" style="edgeStyle=orthogonalEdgeStyle" edge="1" parent="pool_anphat" source="task_reconcile_ar" target="task_update_order">
          <mxGeometry relative="1" as="geometry" />
        </mxCell>
        <mxCell id="VKdsv1J_JRzGHAz9VC5Z-17" style="edgeStyle=orthogonalEdgeStyle;rounded=0;orthogonalLoop=1;jettySize=auto;html=1;entryX=0.5;entryY=1;entryDx=0;entryDy=0;exitX=0.5;exitY=0;exitDx=0;exitDy=0;dashed=1;" edge="1" parent="1" source="task_handover_goods" target="task_receive">
          <mxGeometry relative="1" as="geometry">
            <Array as="points">
              <mxPoint x="1360" y="-310" />
            </Array>
          </mxGeometry>
        </mxCell>
        <mxCell id="stnJ8A8utj70ncKNeC4R-23" style="edgeStyle=orthogonalEdgeStyle;rounded=0;orthogonalLoop=1;jettySize=auto;html=1;entryX=0.5;entryY=1;entryDx=0;entryDy=0;" edge="1" parent="1" source="stnJ8A8utj70ncKNeC4R-19" target="stnJ8A8utj70ncKNeC4R-22">
          <mxGeometry relative="1" as="geometry" />
        </mxCell>
        <mxCell id="stnJ8A8utj70ncKNeC4R-31" value="Yes" style="edgeStyle=orthogonalEdgeStyle;rounded=0;orthogonalLoop=1;jettySize=auto;html=1;entryX=0.5;entryY=0;entryDx=0;entryDy=0;" edge="1" parent="1" source="stnJ8A8utj70ncKNeC4R-22" target="stnJ8A8utj70ncKNeC4R-30">
          <mxGeometry relative="1" as="geometry" />
        </mxCell>
        <mxCell id="flow17" style="edgeStyle=orthogonalEdgeStyle;entryX=1;entryY=0.5;entryDx=0;entryDy=0;dashed=1;" edge="1" parent="1" source="task_payment" target="task_confirm_payment">
          <mxGeometry relative="1" as="geometry">
            <Array as="points">
              <mxPoint x="1800" y="-330" />
              <mxPoint x="1800" y="870" />
            </Array>
          </mxGeometry>
        </mxCell>
      </root>
    </mxGraphModel>
  </diagram>
</mxfile>
